# xmcd
#
# Track frame offsets: 
#        150
#        1525
#        14834
#        32080
#        48756
#        58933
#        78130
#        89376
#
# Disc length: 1441 seconds
#
# Revision: 0
# Processed by: cddbd v1.5.1PL0 Copyright (c) Steve Scherf et al.
# Submitted via: ExactAudioCopy v0.95b2
#
DISCID=53059f08
DTITLE=Ankoma - The Incredible Ep
DYEAR=2005
DGENRE=Hip-Hop
TTITLE0=Intro
TTITLE1=2 Hot (Feat. Geezy)
TTITLE2=Hip Hop Music
TTITLE3=Blackout
TTITLE4=Amore
TTITLE5=Checkmate
TTITLE6=Lyrical Gladiators (Feat. Swann Notty)
TTITLE7=Rockenit
EXTD=
EXTT0=
EXTT1=
EXTT2=
EXTT3=
EXTT4=
EXTT5=
EXTT6=
EXTT7=
PLAYORDER=
